<svg id="组_1234" data-name="组 1234" xmlns="http://www.w3.org/2000/svg" width="1024" height="1024" viewBox="0 0 1024 1024">
  <path id="路径_381" data-name="路径 381" d="M0,0H1024V1024H0Z" fill="#e6eff9"/>
  <path id="路径_382" data-name="路径 382" d="M512,0c283.648,0,512,228.467,512,512.256S795.648,1024,512,1024,0,796.045,0,512.256,228.352,0,512,0Z" fill="#e6eff9"/>
  <path id="路径_383" data-name="路径 383" d="M580.267,840.533l-136.533-.512V678.4H580.267Z" fill="#fccca7"/>
  <path id="路径_384" data-name="路径 384" d="M580.267,737.446,443.733,819.2V678.4H580.267Z" fill="#f9b98a"/>
  <path id="路径_385" data-name="路径 385" d="M512,285.867h-1.545c-45.867,0-136.572,6.2-170.581,38.72-43.3,41.3-24.226,117.2-24.226,187.413,0,124.941,124.2,226.133,194.807,226.133H512Z" fill="#ffdabe"/>
  <path id="路径_386" data-name="路径 386" d="M512,285.867h1.545c64.862,0,150.835-.516,186.867,59.375C722.035,381.38,708.134,465.02,708.134,512c0,124.941-124.062,226.133-194.59,226.133H512Z" fill="#fcd3b2"/>
  <path id="路径_387" data-name="路径 387" d="M287.5,516.646c8.742,27.294,26.227,45.833,40.115,41.715,13.372-4.122,18-29.871,9.259-57.169.512-25.233-18.005-58.709-33.946-70.037s-29.312-.516-29.828,24.717C272.58,473.9,279.266,495.014,287.5,516.646Z" fill="#ffdabe"/>
  <path id="路径_388" data-name="路径 388" d="M742.37,455.872c-.512-25.233-13.884-36.049-29.824-24.717s-34.462,44.8-33.95,70.037c-8.742,27.3-4.113,53.047,9.259,57.169,13.888,4.117,31.373-14.421,40.115-41.715,8.23-21.632,14.916-42.748,14.4-60.774Z" fill="#fcd3b2"/>
  <path id="路径_389" data-name="路径 389" d="M711.279,381.427c-2.569-25.958-9.758-77.867-28.762-103.825,0,0-33.382-66.167-128.4-75.328-173.594-16.286-263.987,87.031-263.987,87.031s28.757,9.673,23.625,108.407c0,11.708-2.569,25.958-2.569,40.209v2.543c0,28.5,0,63.62,2.569,101.282,0,4.582,11.814,21.376,16.435-9.668,2.569-28.5,7.189-75.328,16.435-115.533,2.569-14.251,23.625-79.906,83.2-68.2,38.007,7.125,40.576,11.708,80.636,11.708,61.632,2.543,68.821-14.251,102.2-11.708,26.2,2.547,40.576,11.708,52.386,33.084,16.435,47.334,23.625,115.533,26.2,150.652,2.564,28.5,14.379,14.251,16.431,9.668,5.649-59.038,6.9-108.915,4.851-144.034q-.55-11.072-1.254-16.286Z" fill="#3a1f0e"/>
  <path id="路径_390" data-name="路径 390" d="M610.133,802.133V1024H413.867V802.133h35.567a102.414,102.414,0,0,0,125.133,0h35.567Z" fill="#fff"/>
  <path id="路径_391" data-name="路径 391" d="M780.715,883.2c-26.069-40.858-118.7-81.169-118.7-81.169l-74.709-12.7-53.973,127L543.872,1024a556.9,556.9,0,0,0,266.795-82.27M520.533,774.4h0ZM481.856,1024l8.811-107.925L438.229,789.333,365.141,801.51S273.2,841.916,247.33,882.867c-9.911,15.5-29.73,58.112-29.73,58.112A551.4,551.4,0,0,0,481.856,1024Zm29.1-249.6h0Z" fill="#0a2d55"/>
  <path id="路径_392" data-name="路径 392" d="M780.715,883.2c-26.069-40.858-118.7-81.169-118.7-81.169l-74.709-12.7-53.973,127L543.872,1024H854.114M520.533,774.4h0ZM481.856,1024l8.811-107.925L438.229,789.333,365.141,801.51S273.2,841.916,247.33,882.867q-9.914,15.5-70.669,141.133H481.856Zm29.1-249.6h0Z" fill="#0a2d55"/>
</svg>
