<svg xmlns="http://www.w3.org/2000/svg" width="43.342" height="38.245" viewBox="0 0 43.342 38.245">
  <path id="路径_1016" data-name="路径 1016" d="M104.209,80.721l-.078-.131.078-.131a6.2,6.2,0,0,0,.972-3.32,6.8,6.8,0,0,0-3.334-5.7l-.136-.087v-.16a4.814,4.814,0,0,0,.049-.642c0-3.237-3.582-5.881-7.986-5.886a6.679,6.679,0,0,0-.972.049H92.67l-.049-.092A7.971,7.971,0,0,0,86.492,62a8.263,8.263,0,0,0-5.381,1.866l-.122.107-.146-.063a8.874,8.874,0,0,0-1.264-.452,9.109,9.109,0,0,0-2.333-.311c-3.111,0-5.653,1.643-6.319,4.083a4.962,4.962,0,0,0-.131.671l-.029.224h-.224c-3.1.024-5.629,1.653-6.3,4.083a5.045,5.045,0,0,0,.282,3.359l.083.185-.18.126A5.454,5.454,0,0,0,62,80.255c0,3.242,3.3,5.881,7.354,5.881a8.778,8.778,0,0,0,3.888-.88l.238-.117.107.238c1.619,3.4,5.449,5.6,9.755,5.6a11.908,11.908,0,0,0,4.705-.943l.156-.063.122.112a10.037,10.037,0,0,0,.972.792l.117.087v.141a12.89,12.89,0,0,0,.423,4.073c.792,3.125,2.207,5.06,3.067,5.06a.486.486,0,0,0,.122,0c.851-.209,1.23-2.7.418-5.935a13.728,13.728,0,0,0-.408-1.346l-.146-.423.442.092a11.349,11.349,0,0,0,2.26.224c5.376,0,9.75-3.723,9.75-8.3a7.252,7.252,0,0,0-1.133-3.83ZM79.765,83.011l-.233-.107a5.731,5.731,0,0,1-3.237-3.825,6.974,6.974,0,0,1-1.779.846,10.781,10.781,0,0,1,.34,3.062v.253l-1.288-.029v-.258c.117-4.982-2.975-6.285-3.111-6.319l-.233-.092.486-1.186.238.092a6.319,6.319,0,0,1,3.15,3.286,3.9,3.9,0,0,0,3-3.009l.034-.253,1.278.16-.029.253a4.258,4.258,0,0,1-.972,2.2,4.5,4.5,0,0,0,2.664,3.675l.233.107Zm1.307-12.229a14.569,14.569,0,0,1-5.079,1.264,8.458,8.458,0,0,1-1.8-.214,6.416,6.416,0,0,1-2.43,3.033l-.2.141-.807-1.026.2-.156a4.554,4.554,0,0,0,2.109-2.916,2.557,2.557,0,0,0-.486-1.8l-.165-.19.972-.826.17.185a3.767,3.767,0,0,1,.817,2.26,7.491,7.491,0,0,0,1.614.17,9.978,9.978,0,0,0,6.4-2.5l.194-.16.831.972-.194.165c-.224.18-.447.36-.68.525a4.1,4.1,0,0,1,2.192,2.916l.063.248-1.249.311-.063-.175c-.54-2.148-1.973-2.241-2.4-2.241ZM97.92,79.375h-.258c-.272,0-.54-.024-.8-.024a7.39,7.39,0,0,0-5.2,1.774,8.6,8.6,0,0,0-2.353,5.653V87.1h-1.58v-.4a10.126,10.126,0,0,1,2.916-6.523,1.745,1.745,0,0,0,.165-.083A7.894,7.894,0,0,1,89.5,76.347a4.86,4.86,0,0,0-2.571-.8,4.615,4.615,0,0,0-3.616,1.988l-.156.2-1.011-.792.16-.2a5.8,5.8,0,0,1,4.6-2.464,6.25,6.25,0,0,1,2.62.612,9.994,9.994,0,0,1,.8-3.193A6.513,6.513,0,0,1,87.824,68l-.049-.253,1.273-.233.049.248c.034.165.846,4.005,5.833,4.005a10.425,10.425,0,0,0,1.21-.044l.253-.024.117,1.249-.253.024a12.1,12.1,0,0,1-1.317.073,8.438,8.438,0,0,1-3.529-.7,7.315,7.315,0,0,0,.486,6.975,9.66,9.66,0,0,1,5.833-1.235h.253Z" transform="translate(-62 -62)" fill="#fff"/>
</svg>
