<svg xmlns="http://www.w3.org/2000/svg" width="31.822" height="24.388" viewBox="0 0 31.822 24.388">
  <defs>
    <style>
      .cls-1 {
        fill: #fff;
      }
    </style>
  </defs>
  <path id="路径_181" data-name="路径 181" class="cls-1" d="M31.823,4.758a1.9,1.9,0,0,1-.573,1.4L16.386,21.018l-2.8,2.8a1.989,1.989,0,0,1-2.793,0L8,21.018.574,13.588a1.988,1.988,0,0,1,0-2.792L3.37,8a1.906,1.906,0,0,1,1.4-.573A1.9,1.9,0,0,1,6.162,8L12.2,14.061,25.662.573a1.988,1.988,0,0,1,2.792,0l2.8,2.8A1.9,1.9,0,0,1,31.823,4.758Z" transform="translate(-0.001 0)"/>
</svg>
