<svg xmlns="http://www.w3.org/2000/svg" width="30.608" height="29.491" viewBox="0 0 30.608 29.491">
  <g id="组_1199" data-name="组 1199" transform="translate(-32.645 -37.376)">
    <path id="路径_369" data-name="路径 369" d="M76.8,551.936h27.857v12.009H76.8Z" transform="translate(-42.746 -498.14)" fill="#f180a0"/>
    <path id="路径_370" data-name="路径 370" d="M62.678,349.587v15.505H35.426V349.587l12.989,5.473.637.261.637-.261,12.989-5.473m1.634-2.451-15.26,6.421-15.26-6.421v19.606h30.52V347.136Z" transform="translate(-1.11 -299.875)" fill="#333"/>
    <path id="路径_371" data-name="路径 371" d="M188.514,50.773H186.88v-13.4h20.75V50.512H206V39.01H188.514Z" transform="translate(-149.313 0)" fill="#333"/>
    <path id="路径_372" data-name="路径 372" d="M51.552,185.856H42.566a.328.328,0,0,0-.327.327v.98a.328.328,0,0,0,.327.327h8.97a.328.328,0,0,0,.327-.327v-.98A.3.3,0,0,0,51.552,185.856Zm-2.108,4.8H42.566a.328.328,0,0,0-.327.327v.98a.328.328,0,0,0,.327.327h6.878a.328.328,0,0,0,.327-.327v-.98A.328.328,0,0,0,49.445,190.659Zm-16.8.265,5.344-2.647.725,1.464-5.344,2.647Zm24.669-1.183.742-1.456,5.2,2.647-.742,1.456Z" transform="translate(0 -143.742)" fill="#333"/>
  </g>
</svg>
