<svg xmlns="http://www.w3.org/2000/svg" width="39.393" height="34.469" viewBox="0 0 39.393 34.469">
  <g id="组_2062" data-name="组 2062" transform="translate(-51.2 -108.8)">
    <path id="路径_1025" data-name="路径 1025" d="M70.951,402.3l-.074-.039-.07.039v-.039L51.2,396.8v19.537a2.578,2.578,0,0,0,2.512,2.622H88.08a2.58,2.58,0,0,0,2.512-2.622V396.8l-19.642,5.465Z" transform="translate(0 -275.69)" fill="#fff"/>
    <path id="路径_1026" data-name="路径 1026" d="M88.076,115.033H78.9a2.781,2.781,0,0,0,.072-.551v-2.208a3.613,3.613,0,0,0-3.753-3.473H66.574a3.632,3.632,0,0,0-3.753,3.44v2.21a2.637,2.637,0,0,0,.068.549H53.717a2.43,2.43,0,0,0-2.517,2.307v1.429l19.7,4.837,19.7-4.837V117.3a2.4,2.4,0,0,0-2.517-2.272ZM65.3,114.449v-2.21a1.207,1.207,0,0,1,1.241-1.136h8.645a1.206,1.206,0,0,1,1.239,1.138v2.206a1.029,1.029,0,0,1-.175.551H65.513a.954.954,0,0,1-.214-.551v0Z" transform="translate(0 0)" fill="#fff"/>
  </g>
</svg>
