<svg xmlns="http://www.w3.org/2000/svg" width="43.819" height="21.847" viewBox="0 0 43.819 21.847">
  <g id="组_1165" data-name="组 1165" transform="translate(-206.541 -125.115)">
    <path id="路径_256" data-name="路径 256" d="M249.393,126.027a3.5,3.5,0,0,0-2.407-.912H209.859a3.5,3.5,0,0,0-2.407.912,2.863,2.863,0,0,0-.912,2.1v15.883a2.863,2.863,0,0,0,.912,2.079,3.5,3.5,0,0,0,2.352.875h37.181a3.5,3.5,0,0,0,2.407-.875,2.863,2.863,0,0,0,.967-2.115V128.124A2.863,2.863,0,0,0,249.393,126.027Z" transform="translate(0 0)" fill="#fcd23d"/>
    <path id="路径_257" data-name="路径 257" d="M355.491,282.654q-.82,0-1.422-1.55l-4.741-12.236h3.647l3.209,8.388,5.325-8.388h3.647L357.3,281.122Q356.311,282.654,355.491,282.654Zm8.662-.2,1.915-13.585h3.392l-1.933,13.585Zm20.861-8.5A5.616,5.616,0,0,1,382.9,277.6a6.2,6.2,0,0,1-3.957,1.349h-5.689l-.474,3.41h-3.392l.985-6.911h9.391a1.85,1.85,0,0,0,1.878-1.6,1.276,1.276,0,0,0-.31-1.149,1.5,1.5,0,0,0-1.112-.419h-9.409l2.772-3.41h6.838a4.777,4.777,0,0,1,3.647,1.349A4.23,4.23,0,0,1,385.013,273.956Z" transform="translate(-138.775 -139.705)" fill="#222a36"/>
  </g>
</svg>
