<svg xmlns="http://www.w3.org/2000/svg" width="36.377" height="28.747" viewBox="0 0 36.377 28.747">
  <path id="路径_522" data-name="路径 522" d="M10.758,31.254a1.29,1.29,0,0,1-.9-.439L5.6,26.533a1.29,1.29,0,0,1,0-1.858l4.257-4.412a1.29,1.29,0,1,1,1.832,1.806L9.52,24.288H28.792a5.16,5.16,0,0,0,5.005-5.16v-5.16a1.29,1.29,0,1,1,2.58,0v5.16a7.74,7.74,0,0,1-7.587,7.74H9.52l2.167,2.193a1.29,1.29,0,0,1-.929,2.193ZM1.29,20.935A1.29,1.29,0,0,1,0,19.645v-5.16a7.74,7.74,0,0,1,7.587-7.74H26.831L24.69,4.629a1.29,1.29,0,0,1,1.832-1.806l4.257,4.334a1.282,1.282,0,0,1,.077,1.858l-4.334,4.412a1.29,1.29,0,0,1-1.832-1.806L26.857,9.4H7.585A5.16,5.16,0,0,0,2.58,14.588v5.16a1.29,1.29,0,0,1-1.29,1.187Z" transform="translate(0 -2.507)"/>
</svg>
