<svg id="组_1191" data-name="组 1191" xmlns="http://www.w3.org/2000/svg" width="33.1" height="33.1" viewBox="0 0 33.1 33.1">
  <path id="路径_320" data-name="路径 320" d="M196.156,209.455a13.3,13.3,0,1,1,13.3-13.3c0,2.719-1.478,3.014-2.837,5.083C204.195,204.845,200.826,209.455,196.156,209.455Z" transform="translate(-176.947 -176.947)" fill="#fcaa5b"/>
  <path id="路径_321" data-name="路径 321" d="M16.55,33.1A16.55,16.55,0,1,1,33.1,16.55,16.523,16.523,0,0,1,16.55,33.1Zm0-2.364A14.186,14.186,0,1,0,2.364,16.55,14.152,14.152,0,0,0,16.55,30.735Z" fill="#333"/>
  <path id="路径_322" data-name="路径 322" d="M300.846,233.614a1.492,1.492,0,0,1,1.123-1.419c3.133-1.064,4.788-3.192,4.788-6.088a7.106,7.106,0,0,0-14.186,0,1.182,1.182,0,1,0,2.364,0,4.748,4.748,0,0,1,9.457,0c0,1.832-1,3.074-3.192,3.842a3.982,3.982,0,0,0-2.719,3.665,1.182,1.182,0,0,0,2.364,0Z" transform="translate(-283.114 -212.336)" fill="#333"/>
  <path id="路径_323" data-name="路径 323" d="M476.611,769.182m-1.182,0A1.182,1.182,0,1,0,476.611,768,1.182,1.182,0,0,0,475.429,769.182Z" transform="translate(-460.061 -743.175)" fill="#333"/>
</svg>
