<svg xmlns="http://www.w3.org/2000/svg" width="17.009" height="17.009" viewBox="0 0 17.009 17.009">
  <path id="路径_613" data-name="路径 613" d="M12.172,0a.59.59,0,0,1,.585.585V1.807h2.126a2.132,2.132,0,0,1,2.126,2.126V14.883a2.132,2.132,0,0,1-2.126,2.126H2.126A2.132,2.132,0,0,1,0,14.883V3.933A2.132,2.132,0,0,1,2.126,1.807H4.837V.585A.638.638,0,0,1,5.475,0a.59.59,0,0,1,.585.585V1.807h5.475V.585A.6.6,0,0,1,12.172,0Zm3.774,6.7H1.063v8.185a1.066,1.066,0,0,0,1.063,1.063H14.883a1.066,1.066,0,0,0,1.063-1.063ZM4.837,12.172a.585.585,0,0,1,0,1.169H3.667a.585.585,0,0,1,0-1.169Zm4.252,0a.585.585,0,0,1,0,1.169H7.867a.585.585,0,1,1,0-1.169Zm4.252,0a.585.585,0,0,1,0,1.169H12.119a.585.585,0,0,1,0-1.169Zm-8.5-3.083a.585.585,0,1,1,0,1.169H3.667a.585.585,0,1,1,0-1.169Zm4.252,0a.585.585,0,1,1,0,1.169H7.867a.585.585,0,1,1,0-1.169Zm4.252,0a.585.585,0,0,1,0,1.169H12.119a.585.585,0,1,1,0-1.169ZM4.837,2.87H2.126A1.066,1.066,0,0,0,1.063,3.933V5.475H15.946V3.933A1.066,1.066,0,0,0,14.883,2.87H12.757v.744a.6.6,0,0,1-.585.638.59.59,0,0,1-.585-.585V2.923H6.059v.744a.59.59,0,0,1-.585.585.638.638,0,0,1-.638-.585Z" fill="#99a8b8"/>
</svg>
