<svg xmlns="http://www.w3.org/2000/svg" width="33.051" height="34.666" viewBox="0 0 33.051 34.666">
  <g id="组_1176" data-name="组 1176" transform="translate(-83.736 -62.312)">
    <path id="路径_266" data-name="路径 266" d="M373.4,455.157H392.5l-.773-11.053S377.121,444.1,373.4,455.157Z" transform="translate(-278.435 -366.985)" fill="#5fceff"/>
    <path id="路径_267" data-name="路径 267" d="M136.167,729.11v5.819H104.745V729.11Z" transform="translate(-20.194 -640.938)" fill="#8a86c1"/>
    <path id="路径_268" data-name="路径 268" d="M162.513,499.19a3.755,3.755,0,1,1-3.754,3.754A3.755,3.755,0,0,1,162.513,499.19Z" transform="translate(-72.113 -419.935)" fill="#ffb578"/>
    <path id="路径_269" data-name="路径 269" d="M84.554,438.342a.815.815,0,0,1-.815-.815V418.263a.815.815,0,1,1,1.629,0v19.264a.815.815,0,0,1-.814.815Zm31.422,0a.815.815,0,0,1-.815-.815V426.41a.815.815,0,0,1,1.629,0v11.117A.814.814,0,0,1,115.976,438.342Z" transform="translate(-0.003 -341.363)" fill="#4f46a2"/>
    <path id="路径_270" data-name="路径 270" d="M115.973,709.736H84.551a.815.815,0,0,1,0-1.629h31.422a.815.815,0,1,1,0,1.629Z" transform="translate(0 -620.749)" fill="#4f46a2"/>
    <path id="路径_271" data-name="路径 271" d="M142.323,431.911a4.57,4.57,0,1,1,4.57-4.57A4.575,4.575,0,0,1,142.323,431.911Zm0-7.51a2.94,2.94,0,1,0,2.941,2.94A2.943,2.943,0,0,0,142.323,424.4Zm4.773,8.9a.815.815,0,0,1-.815-.815c0-3.007,2.115-6.051,5.8-8.351a25.826,25.826,0,0,1,13.515-3.6.815.815,0,0,1,0,1.629,24.183,24.183,0,0,0-12.653,3.356c-3.2,2-5.036,4.535-5.036,6.968a.815.815,0,0,1-.815.815Z" transform="translate(-51.923 -344.331)" fill="#4f46a2"/>
    <path id="路径_272" data-name="路径 272" d="M113.677,88.987a.815.815,0,0,1-.815-.815V77.02a.815.815,0,1,1,1.629,0V88.172a.814.814,0,0,1-.815.815ZM99.024,76.7h-6.11a.815.815,0,0,1-.448-1.495l3.842-2.533H92.914a.815.815,0,0,1,0-1.629h6.11a.815.815,0,0,1,.448,1.495L95.63,75.066h3.394a.815.815,0,1,1,0,1.629Zm5.786-8.146h-3.75a.815.815,0,0,1-.448-1.495l1.482-.977H101.06a.815.815,0,0,1,0-1.629h3.75a.815.815,0,0,1,.448,1.495l-1.482.977h1.034a.815.815,0,0,1,0,1.629Zm8.437-2.52h-3.168a.815.815,0,0,1-.448-1.495l.9-.593h-.451a.815.815,0,0,1,0-1.629h3.168a.815.815,0,0,1,.448,1.495l-.9.593h.451a.815.815,0,1,1,0,1.629Zm2.725,28.777H84.551a.815.815,0,0,1,0-1.629h31.422a.815.815,0,0,1,0,1.629Z" transform="translate(0 0)" fill="#4f46a2"/>
  </g>
</svg>
