<svg id="组_1197" data-name="组 1197" xmlns="http://www.w3.org/2000/svg" width="34.814" height="34.814" viewBox="0 0 34.814 34.814">
  <path id="路径_355" data-name="路径 355" d="M477.639,36.17l-1.9-4.985V28.02h-1.662l-.633-1.187a9.136,9.136,0,0,1-.87-2.848l-.079-.712h-1.5v.712a7.043,7.043,0,0,1-.87,2.848l-.633,1.187h-1.662v3.165l-1.9,4.985a8.15,8.15,0,0,0-.475,2.769V54.922a1.587,1.587,0,0,0,1.582,1.582h9.495a1.587,1.587,0,0,0,1.582-1.582V38.939a8.15,8.15,0,0,0-.475-2.769Z" transform="translate(-449.63 -22.482)" fill="#f04b4d"/>
  <path id="路径_356" data-name="路径 356" d="M499.8,286.236a7.167,7.167,0,0,0-.475-2.532l-1.662-4.431h-6.8l-1.662,4.51a6.853,6.853,0,0,0-.475,2.532v15.9a.748.748,0,0,0,.791.791h9.495a.748.748,0,0,0,.791-.791Z" transform="translate(-472.112 -269.778)" fill="#f04b4d"/>
  <path id="路径_357" data-name="路径 357" d="M499.33,283.783l-1.662-4.51h-2.453l.475,4.51c.079.791.158,1.662.158,2.532v14.321a1.587,1.587,0,0,1-1.582,1.582h-.791a1.556,1.556,0,0,1-1.582-1.662V300a6.2,6.2,0,0,0-.316-2.057l-2.848-7.6v11.868a.748.748,0,0,0,.791.791h9.495a.748.748,0,0,0,.791-.791V286.236A6.447,6.447,0,0,0,499.33,283.783Z" transform="translate(-472.112 -269.778)" fill="#de333f"/>
  <path id="路径_358" data-name="路径 358" d="M1.582,978.246a.748.748,0,0,1-.791.791.791.791,0,0,1,0-1.582A.748.748,0,0,1,1.582,978.246Zm30.067.791H3.165a.791.791,0,0,1,0-1.582H31.649a.791.791,0,0,1,0,1.582Zm3.165-.791a.791.791,0,1,1-.791-.791A.748.748,0,0,1,34.814,978.246Z" transform="translate(0 -944.223)" fill="#014463"/>
  <path id="路径_359" data-name="路径 359" d="M455.87,13.451l-1.82-4.906V5.539a.748.748,0,0,0-.791-.791h-1.187V4.668A6.611,6.611,0,0,1,450.885.791.748.748,0,0,0,450.094,0h-1.582a.748.748,0,0,0-.791.791,6.611,6.611,0,0,1-1.187,3.877v.079h-1.187a.748.748,0,0,0-.791.791V8.545l-1.82,4.906a7.925,7.925,0,0,0-.554,3.086v15.9a2.331,2.331,0,0,0,2.374,2.374h9.495a2.331,2.331,0,0,0,2.374-2.374V16.458A7.8,7.8,0,0,0,455.87,13.451ZM449.3,1.582a8.762,8.762,0,0,0,1.029,3.165h-1.9A13.306,13.306,0,0,0,449.3,1.582ZM446.138,6.33h6.33V7.912h-6.33Zm8.7,26.11a.748.748,0,0,1-.791.791h-9.495a.748.748,0,0,1-.791-.791V16.458a7.167,7.167,0,0,1,.475-2.532l1.662-4.51h6.8l1.662,4.51a6.853,6.853,0,0,1,.475,2.532Z" transform="translate(-427.149)" fill="#014463"/>
  <path id="路径_360" data-name="路径 360" d="M674.909,186.182h2.374v1.582h-2.374Z" transform="translate(-651.964 -179.852)" fill="#de333f"/>
  <path id="路径_361" data-name="路径 361" d="M654.01,543.185h-.791a1.587,1.587,0,0,1-1.582-1.582v-4.747a1.587,1.587,0,0,1,1.582-1.582h.791Z" transform="translate(-629.482 -517.075)" fill="#fff"/>
  <path id="路径_362" data-name="路径 362" d="M698.182,535.273h3.956v7.912h-3.956Z" transform="translate(-674.445 -517.075)" fill="#cad5e3"/>
  <path id="路径_363" data-name="路径 363" d="M651.636,49.71h.949a10.5,10.5,0,0,1-.949-3.165Z" transform="translate(-629.482 -44.963)" fill="#de333f"/>
  <path id="路径_364" data-name="路径 364" d="M152.059,319.873l-2.928-9.416v-3.165h-.87l-.633-1.187a9.137,9.137,0,0,1-.87-2.848l-.079-.712h-1.5v.712a7.043,7.043,0,0,1-.87,2.848l-.633,1.187h-.87v3.165l-2.928,9.416a6.636,6.636,0,0,0,.4,4.589l.949,1.82h9.495l.949-1.9a6.745,6.745,0,0,0,.633-2.769A6.59,6.59,0,0,0,152.059,319.873Z" transform="translate(-134.889 -292.259)" fill="#f6b545"/>
  <path id="路径_365" data-name="路径 365" d="M130.289,297.154l-2.848-9.257v-3.086a.748.748,0,0,0-.791-.791h-.4v-.079a6.974,6.974,0,0,1-1.187-3.877.748.748,0,0,0-.791-.791h-1.582a.748.748,0,0,0-.791.791,6.611,6.611,0,0,1-1.187,3.877v.079h-.4a.748.748,0,0,0-.791.791V287.9l-2.848,9.257a5.9,5.9,0,0,0-.316,2.057,6.8,6.8,0,0,0,.712,3.086l.949,1.9a.831.831,0,0,0,.712.4h9.495a.76.76,0,0,0,.712-.475l.949-1.9a7.049,7.049,0,0,0,.712-3.086A5.75,5.75,0,0,0,130.289,297.154ZM121.111,285.6h4.747v1.582h-4.747V285.6Zm2.374-4.747a8.762,8.762,0,0,0,1.029,3.165h-1.9A13.306,13.306,0,0,0,123.485,280.855Zm4.985,20.73-.712,1.424h-8.545l-.712-1.424a4.987,4.987,0,0,1-.554-2.374,5.483,5.483,0,0,1,.237-1.582l2.69-8.862h5.143l2.69,8.862a5.1,5.1,0,0,1,.237,1.582A4.151,4.151,0,0,1,128.469,301.585Z" transform="translate(-112.408 -269.778)" fill="#014463"/>
  <path id="路径_366" data-name="路径 366" d="M207.457,330.566h1.582v1.582h-1.582Zm-.791-1.582h.949a10.5,10.5,0,0,1-.949-3.165Zm5.3,13.609-2.69-8.862h-1.82l.791,8.862a10.089,10.089,0,0,1,.079,1.582c0,.316-.079.949-.079,1.582a1.643,1.643,0,0,1-1.662,1.5h-1.662a3.954,3.954,0,0,0-2.453.791h8.466l.712-1.424a4.987,4.987,0,0,0,.554-2.374A5.26,5.26,0,0,0,211.967,342.592Z" transform="translate(-195.589 -314.741)" fill="#f19a22"/>
  <path id="路径_367" data-name="路径 367" d="M238.266,725.411h-4.747a.748.748,0,0,1-.791-.791v-2.374a.748.748,0,0,1,.791-.791h4.747a.748.748,0,0,1,.791.791v2.374A.748.748,0,0,1,238.266,725.411Z" transform="translate(-224.815 -696.927)" fill="#fff"/>
  <path id="路径_368" data-name="路径 368" d="M361.914,721.455h-1.187l.316,3.323v.633h.87a.748.748,0,0,0,.791-.791v-2.374A.748.748,0,0,0,361.914,721.455Z" transform="translate(-348.463 -696.927)" fill="#cad5e3"/>
</svg>
