<svg xmlns="http://www.w3.org/2000/svg" width="43.341" height="32.423" viewBox="0 0 43.341 32.423">
  <path id="路径_1022" data-name="路径 1022" d="M100.543,206.382V213.3l1.667,1.909-3.2,2.775-2.925-2.775,1.76-1.959v-5.722c-9.459,3.858-12.019,5.057-14.117,5.994a6.631,6.631,0,0,1-5.689.156c-2.08-.775-11.513-4.352-16.431-6.68-3.282-1.554-3.493-2.539.056-3.857,4.632-1.741,11.817-4.529,15.875-6.05,2.4-.962,3.672-1.487,5.878-.39,3.937,1.609,12.463,4.948,16.936,6.776,3.894,1.682,1.276,2.235.191,2.908h0Zm-16.36,10.007c2.287-.934,5.371-2.478,8.734-3.9V223.93a17.365,17.365,0,0,1-11.995,4.577c-8.234,0-12.681-4.577-12.681-4.577V213.248c2.6,1.046,5.51,1.946,9.037,3.141,2.174.765,4.932,1.029,6.9,0ZM84.183,216.389Z" transform="translate(-59.073 -196.084)" fill="#fff"/>
</svg>
