<svg id="组_2055" data-name="组 2055" xmlns="http://www.w3.org/2000/svg" width="27.431" height="38.245" viewBox="0 0 27.431 38.245">
  <path id="路径_1014" data-name="路径 1014" d="M158.4,21.334a10.532,10.532,0,0,1,4.016-1.605,5.912,5.912,0,0,1,3.214.8s2,1.181,2.408,0a5.207,5.207,0,0,1,3.214-2.408,6,6,0,0,1,3.214,0c.169.394-1.605-9.638-1.605-9.638s-1.748-1.091-2.408,0c-.36.589-2.82,2.861-4.823,2.408-1.706-.386-3.086-3.409-2.408-4.016a7.392,7.392,0,0,1,4.013-2.408c2.209-.566,5.475-.75,7.23,0,3.6,1.5,9.192,10.264,10.44,12.852s1.211,4.834,0,6.424c-.623.818-4.275,5.186-8.835,7.23a20.265,20.265,0,0,1-8.835,1.605s-2.546,5.618-4.819,7.23a27.792,27.792,0,0,1-4.016,2.408Z" transform="translate(-158.4 -3.974)" fill="#fff"/>
  <path id="路径_1015" data-name="路径 1015" d="M197.342,413.562a20.094,20.094,0,0,0-4.016,1.605c-1.744.971-4.819,2.411-4.819,2.411s1.894-3.086,4.016-4.013A7.643,7.643,0,0,1,197.342,413.562Zm-13.789.795a7.852,7.852,0,0,0-3.053,1.163v1.148c1.073-.15,2.366-.345,3.323-.533a20.071,20.071,0,0,1,4.316-.285A7.663,7.663,0,0,0,183.553,414.357Z" transform="translate(-179.671 -397.807)" fill="#5f4b8b"/>
</svg>
