<svg id="组_1498" data-name="组 1498" xmlns="http://www.w3.org/2000/svg" width="18.584" height="23.122" viewBox="0 0 18.584 23.122">
  <path id="路径_513" data-name="路径 513" d="M156.413,141.394s-1.893-.615-2.6.33c0,0-2.691-2.556-5.379-.807a22.583,22.583,0,0,0-.426-8.02s.282-.8.945-.378,3.3.99,3.963-.849c.744-.9.933-2.871-1.7-3.819s-5.472,1.515-5.685,2.061-4.275,6.9-3.567,13.414c0,0-1.464,2.028.378,2.88s2.265.282,2.265.282.471,2.691,5.9,2.454c0,0,.219,1.107,2.163,1.461l2.319-1.272,1.7-7.221Z" transform="translate(-141.412 -127.636)" fill="#ff7517"/>
  <path id="路径_514" data-name="路径 514" d="M320.2,545.62h-3.018s-.6,7.177-4.263,9.592h2.718a.51.51,0,0,0,.45-.27l4.566-8.569A.515.515,0,0,0,320.2,545.62Zm-10.966-1.02s-1.941,1.233-2.136,2.469c0,0,.153-.462,2.052-1.7m3.768,6.982a2.7,2.7,0,0,1-1.188,1.779,1.562,1.562,0,0,1-.5-.735A3.37,3.37,0,0,0,312.92,552.353Z" transform="translate(-302.129 -532.09)" fill="#1c1c1c"/>
</svg>
