<svg xmlns="http://www.w3.org/2000/svg" width="28.733" height="34.667" viewBox="0 0 28.733 34.667">
  <g id="组_1181" data-name="组 1181" transform="translate(-119.467 -38.4)">
    <path id="路径_274" data-name="路径 274" d="M314.282,40.586l-7.808,3.279-7.808-3.279V38.4h15.616Z" transform="translate(-172.641)" fill="#ffcd29"/>
    <path id="路径_275" data-name="路径 275" d="M133.833,214.9m-14.366,0a14.366,14.366,0,1,0,14.366-14.366A14.366,14.366,0,0,0,119.467,214.9Z" transform="translate(0 -156.199)" fill="#6e7dc3"/>
    <path id="路径_276" data-name="路径 276" d="M346.69,415.614l-3.279-1.718h-.468l-3.279,1.718c-.312.156-.625-.156-.625-.468l.625-3.748c0-.156,0-.312-.156-.312l-2.655-2.5c-.312-.312-.156-.625.156-.781l3.748-.625a.336.336,0,0,0,.312-.312l1.562-3.435a.442.442,0,0,1,.781,0l1.718,3.279c0,.156.156.156.312.156l3.748.468c.312,0,.468.468.312.781l-2.655,2.655a.484.484,0,0,0-.156.312l.625,3.748C347.471,415.458,347,415.771,346.69,415.614Z" transform="translate(-209.265 -351.449)" fill="#fff"/>
  </g>
</svg>
