<svg xmlns="http://www.w3.org/2000/svg" width="36.925" height="35.05" viewBox="0 0 36.925 35.05">
  <g id="组_1382" data-name="组 1382" transform="translate(-85.333 -106.057)">
    <path id="路径_425" data-name="路径 425" d="M94.565,509.482a1.846,1.846,0,0,1,0-3.693H113.23a1.846,1.846,0,1,1,0,3.693Zm25.847-14.7H87.18a1.846,1.846,0,1,1,0-3.692h33.232a1.846,1.846,0,1,1,0,3.692Zm-3.692,7.385H90.872a1.846,1.846,0,0,1,0-3.693H116.72a1.846,1.846,0,0,1,0,3.693Z" transform="translate(0 -368.375)" fill="#3846cf"/>
    <path id="路径_426" data-name="路径 426" d="M604.108,112.115m-1.6-.923h0a1.632,1.632,0,0,1-.676-2.522l.923-1.6a1.632,1.632,0,0,1,2.522-.676h0a1.632,1.632,0,0,1,.676,2.522l-.923,1.6A1.632,1.632,0,0,1,602.51,111.192Z" transform="translate(-493.827)" fill="#08c600"/>
    <path id="路径_427" data-name="路径 427" d="M787.959,251.307m.923,1.6h0a1.632,1.632,0,0,1-.676,2.522l-1.6.923a1.632,1.632,0,0,1-2.522-.676h0a1.632,1.632,0,0,1,.676-2.522l1.6-.923A1.632,1.632,0,0,1,788.882,252.906Z" transform="translate(-668.193 -138.965)" fill="#08c600"/>
    <path id="路径_428" data-name="路径 428" d="M272.792,288a10.819,10.819,0,0,0-10.819,10.819h21.62A10.8,10.8,0,0,0,272.792,288Z" transform="translate(-168.997 -174.07)" fill="#4d69ff" opacity="0.72"/>
    <path id="路径_429" data-name="路径 429" d="M315.768,107.335m1.6-.923h0a1.632,1.632,0,0,1,2.522.676l.923,1.6a1.632,1.632,0,0,1-.676,2.522h0a1.632,1.632,0,0,1-2.522-.676l-.923-1.6A1.632,1.632,0,0,1,317.367,106.412Z" transform="translate(-220.463 -0.016)" fill="#08c600"/>
    <path id="路径_430" data-name="路径 430" d="M119.336,267.259m-.923,1.6h0a1.632,1.632,0,0,1-2.522.676l-1.6-.923a1.632,1.632,0,0,1-.676-2.522h0a1.632,1.632,0,0,1,2.522-.676l1.6.923A1.632,1.632,0,0,1,118.412,268.858Z" transform="translate(-26.735 -152.137)" fill="#08c600"/>
    <path id="路径_431" data-name="路径 431" d="M283.24,290.62a10.155,10.155,0,0,0,.148-1.68,10.819,10.819,0,1,0-21.62,0,10.155,10.155,0,0,0,.148,1.68Zm-20.032,3.693a10.8,10.8,0,0,0,18.739,0Z" transform="translate(-168.792 -164.19)" fill="#319bf7"/>
  </g>
</svg>
