<svg xmlns="http://www.w3.org/2000/svg" width="29.049" height="28.242" viewBox="0 0 29.049 28.242">
  <g id="组_1163" data-name="组 1163" transform="translate(-1.952 -3.117)">
    <path id="路径_248" data-name="路径 248" d="M571.537,3.59a2.01,2.01,0,0,1-.258,0c-1.4,0-2.8,0-4.2,0a3.567,3.567,0,0,0-1.194.188A1.875,1.875,0,0,0,564.615,5.2a3.309,3.309,0,0,0-.089.785c0,2.477,0,4.95,0,7.427a3.962,3.962,0,0,0,.229,1.5,1.9,1.9,0,0,0,1.375,1.168,2.887,2.887,0,0,0,.711.081h8.035a4.767,4.767,0,0,0,.914-.085,1.963,1.963,0,0,0,1.655-1.659c.015-.081-.015-.192.107-.229V5.643a.072.072,0,0,1-.018-.055c-.055-.177-.063-.361-.122-.542a2.1,2.1,0,0,0-1.578-1.43,2.474,2.474,0,0,0-.719-.077c-.048,0-.111.037-.144-.033H571.7C571.681,3.6,571.6,3.583,571.537,3.59Zm3.638,1.5a1.483,1.483,0,0,1,.439.077.544.544,0,0,1,.394.557c0,2.757,0,5.514,0,8.271,0,.413-.317.663-.778.667-1.408.011-2.812,0-4.22,0h-4.165a1.436,1.436,0,0,1-.468-.1c-.313-.114-.354-.387-.357-.66-.007-1.382,0-2.764,0-4.147V5.872a.758.758,0,0,1,.254-.627.862.862,0,0,1,.575-.158Q571.01,5.081,575.175,5.09Z" transform="translate(-546.556 -0.377)" fill="#9a9a9a"/>
    <path id="路径_249" data-name="路径 249" d="M25.078,3.158q-2.184.006-4.364,0a4.516,4.516,0,0,0-1.021.114,2.033,2.033,0,0,0-1.106.616,2.31,2.31,0,0,0-.546,1.57q-.011,3.848,0,7.7a4.369,4.369,0,0,0,.1,1,2.085,2.085,0,0,0,.616,1.124,2.249,2.249,0,0,0,1.53.553q4.1.006,8.2,0a3.806,3.806,0,0,0,1.021-.111,1.976,1.976,0,0,0,1.474-1.32c.063-.2.066-.4.14-.593-.118.037-.092.147-.107.229A1.959,1.959,0,0,1,29.361,15.7a5.082,5.082,0,0,1-.914.085H20.412a2.886,2.886,0,0,1-.711-.081,1.9,1.9,0,0,1-1.375-1.168,3.952,3.952,0,0,1-.229-1.5c-.007-2.477,0-4.95,0-7.427a3.31,3.31,0,0,1,.088-.785A1.875,1.875,0,0,1,19.45,3.408a3.662,3.662,0,0,1,1.194-.188c1.4-.007,2.8,0,4.2,0a2.009,2.009,0,0,0,.258,0c.063-.007.144.007.155-.088-.044.077-.118.033-.181.033Zm-22.9,10.7A2.312,2.312,0,0,0,2.7,15.111a2.067,2.067,0,0,0,1.585.667q4.152.017,8.308,0a3.43,3.43,0,0,0,1.036-.144,1.964,1.964,0,0,0,1.441-1.957q0-4.091,0-8.179a2.748,2.748,0,0,0-.088-.693,2.106,2.106,0,0,0-1.751-1.559,3.144,3.144,0,0,0-.457-.041c-.074,0-.166.022-.192-.088H9.306c-.048.077-.122.033-.181.033-1.515,0-3.03-.007-4.545.007a2.9,2.9,0,0,0-1.555.394,2,2,0,0,0-.874,1.216c-.029.1-.007.21-.07.3v8.588c.107.033.081.129.092.2ZM3.629,5.343a.631.631,0,0,1,.534-.6,2.4,2.4,0,0,1,.487-.037h8.072a1.581,1.581,0,0,1,.457.074.5.5,0,0,1,.4.538v8.312a.562.562,0,0,1-.428.586,1.365,1.365,0,0,1-.457.074c-1.371,0-2.739,0-4.11,0-1.39,0-2.776,0-4.165,0a.8.8,0,0,1-.638-.225.54.54,0,0,1-.151-.372q-.006-4.163,0-8.341Z" transform="translate(-0.126)" fill="#9a9a9a"/>
    <path id="路径_250" data-name="路径 250" d="M2.115,14.132a2.164,2.164,0,0,0,.236.925,1.992,1.992,0,0,0,1.9,1.15c2.746.022,5.492.007,8.234.007a4.333,4.333,0,0,0,1.021-.111A1.984,1.984,0,0,0,15.122,14.1c.018-2.72.007-5.44.007-8.161A2.973,2.973,0,0,0,15.1,5.4,2.173,2.173,0,0,0,14.2,3.959a2.41,2.41,0,0,0-1.36-.42c-.085,0-.181.044-.254-.033.026.111.122.088.192.088a3.76,3.76,0,0,1,.457.041A2.106,2.106,0,0,1,14.99,5.194a2.748,2.748,0,0,1,.088.693c0,2.728,0,5.451,0,8.179a1.971,1.971,0,0,1-1.441,1.957,3.43,3.43,0,0,1-1.036.144q-4.152.011-8.308,0A2.072,2.072,0,0,1,2.7,15.5a2.324,2.324,0,0,1-.527-1.253c-.011-.07.015-.17-.1-.192.048,0,.033.048.033.077ZM4.8,31.647a1.724,1.724,0,0,1,.24,0h7.593a3.6,3.6,0,0,0,.91-.114,1.962,1.962,0,0,0,1.53-1.961c0-.933,0-1.869,0-2.8V21.312a2.129,2.129,0,0,0-1.976-2.2c-.42-.044-.844-.063-1.268-.074-1.272-.026-2.543.018-3.811.048-1.216.029-2.433.007-3.645.026a2.627,2.627,0,0,0-1.205.3,1.837,1.837,0,0,0-.947,1.231c-.026.1,0,.24-.136.295v8.625c.074.2.081.42.144.63a1.963,1.963,0,0,0,1.467,1.434,2.462,2.462,0,0,0,.734.077c.052,0,.122-.041.162.033h.074c.007-.085.077-.081.136-.088Zm-.42-1.5a.688.688,0,0,1-.759-.756c.015-2.7.007-5.4,0-8.109A.629.629,0,0,1,4.3,20.6c2.75-.088,5.5-.018,8.245-.029a1.448,1.448,0,0,1,.722.111.541.541,0,0,1,.313.5c0,1.382,0,2.764,0,4.147s-.007,2.739,0,4.11c0,.446-.288.649-.689.711a5.715,5.715,0,0,1-.94,0c-2.525-.007-5.05,0-7.575,0Z" transform="translate(-0.126 -0.377)" fill="#9a9a9a"/>
    <path id="路径_251" data-name="路径 251" d="M4.735,559.471q3.749-.005,7.5,0a5.107,5.107,0,0,0,1.032-.077,2.182,2.182,0,0,0,1.2-.63A1.987,1.987,0,0,0,15,557.378c.007-2.739,0-5.481,0-8.22a2.65,2.65,0,0,0-.074-.682,2.134,2.134,0,0,0-1.353-1.522,4.31,4.31,0,0,0-1.511-.2c-.851-.018-1.7-.033-2.554.018-.7.044-1.408.011-2.112.037-1.017.033-2.038.011-3.059.007a3.2,3.2,0,0,0-.7.074,2.036,2.036,0,0,0-1.5,1.154c-.1.21-.1.442-.192.652.136-.055.111-.192.136-.295a1.848,1.848,0,0,1,.947-1.231,2.639,2.639,0,0,1,1.205-.3c1.216-.018,2.429,0,3.645-.026,1.272-.029,2.54-.074,3.811-.048.424.007.848.026,1.268.074a2.132,2.132,0,0,1,1.976,2.2v5.455c0,.933,0,1.869,0,2.8a1.963,1.963,0,0,1-1.53,1.961,3.6,3.6,0,0,1-.91.114H4.908c-.081,0-.158,0-.24,0-.059.007-.129,0-.136.089C4.587,559.431,4.668,559.471,4.735,559.471Z" transform="translate(0 -528.146)" fill="#9a9a9a"/>
    <path id="路径_252" data-name="路径 252" d="M2.9,3.685a2.931,2.931,0,0,1,1.555-.394c1.515-.015,3.03,0,4.545-.007.059,0,.133.044.181-.033a.367.367,0,0,1-.2.018c-1.651.011-3.3-.029-4.954.022a2.128,2.128,0,0,0-1.714.87A1.872,1.872,0,0,0,1.952,5.2c.066-.088.044-.2.07-.3A2.011,2.011,0,0,1,2.9,3.685Zm25.669-.4a2.487,2.487,0,0,1,.719.077,2.107,2.107,0,0,1,1.578,1.43c.059.177.066.365.122.542V5.318A2.119,2.119,0,0,0,29.04,3.28a3.49,3.49,0,0,1-.619-.033C28.45,3.324,28.516,3.287,28.564,3.283ZM4.3,31.451a2.461,2.461,0,0,1-.734-.077A1.962,1.962,0,0,1,2.1,29.94c-.059-.21-.066-.428-.144-.63.041.2.029.4.077.593a2.021,2.021,0,0,0,1.791,1.548,3.679,3.679,0,0,1,.638.029C4.418,31.411,4.348,31.448,4.3,31.451Z" transform="translate(0 -0.126)" fill="#9a9a9a"/>
    <path id="路径_253" data-name="路径 253" d="M170.949,169.6a.712.712,0,0,0-.752.737v6.332a.7.7,0,0,0,.767.734.694.694,0,0,0,.778-.726c.007-2.116,0-4.235,0-6.351A.708.708,0,0,0,170.949,169.6Zm9.325.007a.721.721,0,0,0-.859.671c-.007,1.076,0,2.149,0,3.225v3.207a.59.59,0,0,0,.015.181.8.8,0,0,0,.866.516c.42-.1.66-.265.663-.789.007-2.046,0-4.091,0-6.137C180.96,169.945,180.794,169.7,180.275,169.6Zm-3.417,2.208a.774.774,0,0,0-.815-.557c-.457.088-.715.243-.719.77-.011,1.515,0,3.034,0,4.548a.71.71,0,0,0,.645.818.732.732,0,0,0,.9-.7v-4.718A.783.783,0,0,0,176.858,171.81Zm-1.021-6.727a.7.7,0,0,0-.516.73v3.258c0,.483.147.774.667.874a.737.737,0,0,0,.881-.682c0-.582,0-1.165,0-1.751,0-.564-.007-1.128,0-1.7C176.88,165.117,176.331,164.977,175.837,165.083Zm-4.386.1a.917.917,0,0,0-.568-.122.665.665,0,0,0-.682.675v.958c0,.332,0,.663,0,1a.62.62,0,0,0,.181.453.846.846,0,0,0,.671.24.725.725,0,0,0,.693-.689c0-.652.007-1.3,0-1.954A.641.641,0,0,0,171.451,165.179Zm9.447.313a.746.746,0,0,0-.66-.442.729.729,0,0,0-.829.84c.018.258,0,.516,0,.774v.921a.592.592,0,0,0,.015.162.765.765,0,0,0,.881.516.691.691,0,0,0,.649-.726c.011-.582,0-1.168,0-1.751A.859.859,0,0,0,180.9,165.493ZM161.5,154.5a.678.678,0,0,0-.568-.5,1,1,0,0,0-.147-.015c-.022,0-.055.007-.063-.029h-1.062c-.015.026-.041.011-.059.011-.49,0-.98,0-1.471,0a.939.939,0,0,0-.5.129.644.644,0,0,0-.284.394c-.007.033,0,.07-.022.1v2.783c.037.007.026.041.029.063a.768.768,0,0,0,.17.405.68.68,0,0,0,.512.217c.9,0,1.8,0,2.691,0a1.041,1.041,0,0,0,.335-.048.641.641,0,0,0,.468-.634v-2.65A.756.756,0,0,0,161.5,154.5Zm15.979-.284a.678.678,0,0,0-.568-.5,1,1,0,0,0-.147-.015c-.022,0-.055.007-.063-.029h-1.062c-.015.026-.041.011-.059.011-.49,0-.98,0-1.471,0a.939.939,0,0,0-.5.129.644.644,0,0,0-.284.394c-.007.033,0,.07-.022.1v2.783c.037.007.026.041.029.063a.768.768,0,0,0,.17.405.68.68,0,0,0,.512.217c.9,0,1.8,0,2.691,0a1.041,1.041,0,0,0,.335-.048.641.641,0,0,0,.468-.634v-2.65A.639.639,0,0,0,177.477,154.221Zm-16,15.721a.677.677,0,0,0-.568-.5,1,1,0,0,0-.147-.015c-.022,0-.055.007-.063-.029h-1.062c-.015.026-.041.011-.059.011-.49,0-.98,0-1.471,0a.939.939,0,0,0-.5.129.644.644,0,0,0-.284.394c-.007.033,0,.07-.022.1v2.783c.037.007.026.041.029.063a.768.768,0,0,0,.17.405.68.68,0,0,0,.512.217c.9,0,1.8,0,2.691,0a1.041,1.041,0,0,0,.335-.048.641.641,0,0,0,.468-.634v-2.65a.756.756,0,0,0-.026-.221Z" transform="translate(-150.922 -146.268)" fill="#9a9a9a"/>
  </g>
</svg>
