<svg xmlns="http://www.w3.org/2000/svg" width="20.899" height="21.107" viewBox="0 0 20.899 21.107">
  <g id="组_1497" data-name="组 1497" transform="translate(-117.033 -116.492)">
    <path id="路径_498" data-name="路径 498" d="M130.9,183.892a6.431,6.431,0,1,1,1.089-1.107l.815.815a5.021,5.021,0,0,1,2.357.619,9.878,9.878,0,1,0-2.745,2.8,15.255,15.255,0,0,1-.767-2.376l-.749-.749Z" transform="translate(0 -51.116)" fill="#f92537"/>
    <path id="路径_499" data-name="路径 499" d="M376.65,429.487a.774.774,0,1,1,1.093-1.093l0,0,2,2a3.007,3.007,0,1,0-1.079,1.118Z" transform="translate(-250.242 -301.207)" fill="#f92537"/>
    <path id="路径_500" data-name="路径 500" d="M543.82,592.976l2.473,2.473a6.346,6.346,0,0,0,1.087-1.107l-2.483-2.483A2.994,2.994,0,0,1,543.82,592.976Z" transform="translate(-415.391 -462.673)" fill="#d3d3d3"/>
    <path id="路径_501" data-name="路径 501" d="M467.786,513.914a5.014,5.014,0,0,0-2.357-.619l-.815-.815a6.574,6.574,0,0,1-1.087,1.107l.751.751a15.494,15.494,0,0,0,.767,2.376A9.9,9.9,0,0,0,467.786,513.914ZM462.134,510l-2-2,0,0a.774.774,0,1,0-1.093,1.093l2.021,2.021A3,3,0,0,0,462.134,510Z" transform="translate(-332.628 -380.812)" fill="#c21f2d"/>
    <path id="路径_502" data-name="路径 502" d="M459.871,505.747m-.775,0a.775.775,0,1,0,.775-.775A.775.775,0,0,0,459.1,505.747Z" transform="translate(-332.929 -378.106)" fill="#fed05a"/>
    <path id="路径_503" data-name="路径 503" d="M700.911,249.839s3.908-.81,5.09-2.636l-.047-.342-2.871.369Z" transform="translate(-568.287 -126.887)" fill="#5e3483"/>
    <path id="路径_504" data-name="路径 504" d="M756.673,119.571c.045-.047.093-.1.14-.144A.492.492,0,0,0,756.673,119.571Z" transform="translate(-622.56 -2.856)" fill="#4c2371"/>
    <path id="路径_505" data-name="路径 505" d="M757.312,119.437h-2.471v-2.471a.476.476,0,0,0-.474-.474.47.47,0,0,0-.26.078c-.048.047-.095.1-.14.144a.475.475,0,0,0-.074.252v2.945a.476.476,0,0,0,.474.474h2.945a.474.474,0,0,0,0-.949Z" transform="translate(-619.854 0)" fill="#4c2371"/>
    <path id="路径_506" data-name="路径 506" d="M668.993,122.13s-2.629,3-2.471,5.172l.243.243,2.068-2.025Z" transform="translate(-534.81 -5.487)" fill="#5e3483"/>
    <path id="路径_507" data-name="路径 507" d="M476.115,222.034l1.1,1.1-7.759,7.759-1.1-1.1Z" transform="translate(-341.942 -102.724)" fill="#fed05a"/>
    <path id="路径_508" data-name="路径 508" d="M749.8,215.739m-.775,0a.775.775,0,1,0,.775-.775A.775.775,0,0,0,749.027,215.739Z" transform="translate(-615.118 -95.842)" fill="#be7b47"/>
  </g>
</svg>
