<svg xmlns="http://www.w3.org/2000/svg" width="33.1" height="33.1" viewBox="0 0 33.1 33.1">
  <g id="组_1192" data-name="组 1192" transform="translate(-0.128 -0.192)">
    <path id="路径_324" data-name="路径 324" d="M16.678,16.742m-16.55,0A16.55,16.55,0,1,0,16.678.192,16.55,16.55,0,0,0,.128,16.742Z" transform="translate(0 0)" fill="#2b7dbc"/>
    <path id="路径_325" data-name="路径 325" d="M46.136,40.414C46.311,40.049,45.912,40.875,46.136,40.414Zm16.4-4.5c-.931-1.558-2.7-2.422-4.33-3.2-2.073-.989-1.783-.417-3.944.269-1.664.534-2.313-1.529-3.925-1.241-1.77.319-.3,3.29-1.443,3.98-.2.125-3.211-.321-1.249,1.112,2.313,1.692-1.071.444-1.029,1.652a.9.9,0,0,0,.787.419c.309.309-1.261,1.5-1.261,1.506-.752,1.548-1.368,4.5.741,5.3,1.217.463,2.29-.225,2.581,1.489a41.531,41.531,0,0,1,.021,4.445c.05.9.562,2.63,1.877,2.138,1.132-.423,1.232-2.078,1.66-3.006.674-1.483,1.954,2.856,2.173-.749.094-1.633-1.146-.246-1.119-1.615.017-.993,1.359-1.408,1.441-2.436.086-1.1.539-4.854,2.741-3.82.463.219,1.324,5.311,1.958,1.961.668-3.59,2.729,2.051,2.674,3.5a12.89,12.89,0,0,0-.355-11.717Zm-9.069,4.112c-.163.839-1.722.78-2.282.361-.184-.14-.238-.4-.415-.559a4.339,4.339,0,0,0-.605-.328.9.9,0,0,1-.472-1.116c.065-.148.5-.747.981-.63.363.088-.073.857.238,1.11.509.409.608-.288.94-.572.871-.751,1.77.968,1.616,1.733Zm-19.014.69c-.491-.661-1.257.244-1.388-1.126a4.925,4.925,0,0,1,.917-3.7c.34-.436,4.8-4.568,5-3.941.651,1.988,2.221-1.371,3.593-1.631,2.981-.565,3.224,1.387,1.027,3.021-.395.3-1.6,2-2.311,1.183-.549-.63.626-1.343.457-1.986-.23-.849-1.777,0-1.361.962.522,1.2-.217.665-.7,1.464-.426.707.722,1.331.008,2.276a6.847,6.847,0,0,1-2.725,1.548c-.71.315-1.038,1.126-1.593,1.644-.658.611.8,1.114.758,1.646-.109,1.569-1.833-1.569-1.685-1.362C34.248,40.437,34.724,41.09,34.448,40.716Zm-.95,1.25c-1.988.019.881,2.4.927,2.708.342,2.341.739,2.242,2.176,3.928,1.249,1.464.735,3.623,2.186,5.067,1.4,1.4,1.664.436,1.449-1.022-.225-1.475.541-2.407.866-3.778.445-1.854-2.169-2.63-3-3.989-1.067-1.752-3.389.106-3.616-1.371A1.867,1.867,0,0,0,33.5,41.966ZM47.153,29.043c.973-.217,1.493-.978,2.56-.993.463-.006,4.879,1.062,3.355-.661-1.576-1.784-5.756-2.04-7.671-.753-2.6,1.75-.351,2.875,1.756,2.407C48.821,28.671,45.99,29.3,47.153,29.043Zm-.37,25.948c.775.127.889-1.185,1.927-.655.791.4,3.332,1.481,3.37,2.637A17.506,17.506,0,0,1,46.6,57.2c-3.226-.365-3.75-2.822.188-2.211.472.075-2.718-.419,0,0Z" transform="translate(-31.757 -24.921)" fill="#ffd15c"/>
  </g>
</svg>
