<svg xmlns="http://www.w3.org/2000/svg" width="22.725" height="15.15" viewBox="0 0 22.725 15.15">
  <path id="路径_619" data-name="路径 619" d="M36.141,17.465c.456-.415.817-.727,1.161-1.058q4.921-4.741,9.838-9.488c.793-.768,1.621-1.154,2.591-.35.813.671.692,1.6-.32,2.582Q43.6,14.776,37.762,20.389c-1.219,1.17-1.881,1.178-3.079.037-2.111-2.017-4.2-4.059-6.312-6.073-.8-.759-1.2-1.559-.374-2.5.7-.787,1.668-.671,2.681.3,1.812,1.741,3.605,3.5,5.461,5.308Z" transform="translate(-27.539 -6.124)" fill="#222a36"/>
</svg>
