<svg xmlns="http://www.w3.org/2000/svg" width="29.803" height="29.803" viewBox="0 0 29.803 29.803">
  <path id="路径_541" data-name="路径 541" d="M21.328,0a1.034,1.034,0,0,1,1.024,1.024V3.167h3.725A3.736,3.736,0,0,1,29.8,6.892V26.077A3.736,3.736,0,0,1,26.077,29.8H3.725A3.736,3.736,0,0,1,0,26.077V6.892A3.736,3.736,0,0,1,3.725,3.167h4.75V1.024A1.118,1.118,0,0,1,9.593,0a1.034,1.034,0,0,1,1.024,1.024V3.167H20.21V1.024A1.057,1.057,0,0,1,21.328,0ZM27.94,11.735H1.863V26.077A1.868,1.868,0,0,0,3.725,27.94H26.077a1.868,1.868,0,0,0,1.863-1.863ZM8.475,21.328a1.024,1.024,0,1,1,0,2.049H6.426a1.024,1.024,0,1,1,0-2.049Zm7.451,0a1.024,1.024,0,0,1,0,2.049H13.784a1.024,1.024,0,1,1,0-2.049Zm7.451,0a1.024,1.024,0,1,1,0,2.049H21.234a1.024,1.024,0,1,1,0-2.049Zm-14.9-5.4a1.024,1.024,0,1,1,0,2.049H6.426a1.024,1.024,0,1,1,0-2.049Zm7.451,0a1.024,1.024,0,0,1,0,2.049H13.784a1.024,1.024,0,1,1,0-2.049Zm7.451,0a1.024,1.024,0,1,1,0,2.049H21.234a1.024,1.024,0,1,1,0-2.049Zm-14.9-10.9H3.725A1.868,1.868,0,0,0,1.863,6.892v2.7H27.94v-2.7a1.868,1.868,0,0,0-1.863-1.863H22.352v1.3a1.057,1.057,0,0,1-1.024,1.118A1.034,1.034,0,0,1,20.3,6.426v-1.3H10.617v1.3A1.034,1.034,0,0,1,9.593,7.451,1.118,1.118,0,0,1,8.475,6.426Z"/>
</svg>
