<svg xmlns="http://www.w3.org/2000/svg" width="33.099" height="33.921" viewBox="0 0 33.099 33.921">
  <g id="组_1195" data-name="组 1195" transform="translate(-105.088 -95.936)">
    <path id="路径_326" data-name="路径 326" d="M105.152,112.214A16.278,16.278,0,1,0,121.43,95.936,16.278,16.278,0,0,0,105.152,112.214Z" transform="translate(-0.061)" fill="#aeecff"/>
    <path id="路径_327" data-name="路径 327" d="M626.861,630.674a.531.531,0,0,0-.756,0l-7.668,7.666a.536.536,0,0,0,0,.756l2.457,2.454a.517.517,0,0,0,.371.155h0l0,0a13.249,13.249,0,0,1,3.614-.754c2.036.238,4.713,2.347,4.713,2.347l.008-.01a1.04,1.04,0,0,0,1.462-1.463l.015-.013s-2.089-2.7-2.314-4.721a12.674,12.674,0,0,1,.7-3.6l0,0a.531.531,0,0,0-.153-.371Zm3.769,12.191a.5.5,0,1,1,0-.71A.5.5,0,0,1,630.63,642.865Z" transform="translate(-493.112 -513.662)" fill="#01c4c6"/>
    <path id="路径_328" data-name="路径 328" d="M724.908,630.674a.531.531,0,0,0-.756,0l-3.831,3.832,7.648,7.648a.5.5,0,1,1,.709.711l.361.358.007-.008a1.049,1.049,0,0,0,.073-1.39l.015-.013s-2.089-2.7-2.314-4.721a12.675,12.675,0,0,1,.7-3.6l0,0a.531.531,0,0,0-.153-.371Z" transform="translate(-591.159 -513.662)" fill="#00b1b3"/>
    <path id="路径_329" data-name="路径 329" d="M628.627,632.439l-1.766-1.766a.531.531,0,0,0-.756,0l-7.668,7.666a.536.536,0,0,0,0,.756l1.768,1.768Z" transform="translate(-493.112 -513.662)" fill="#d8d8d8"/>
    <path id="路径_330" data-name="路径 330" d="M631.757,634.852a.268.268,0,0,1,0,.376l-8.437,8.439a.268.268,0,0,1-.378-.378l8.437-8.439A.268.268,0,0,1,631.757,634.852Zm.814.816a.263.263,0,0,1,0,.376l-8.437,8.437a.267.267,0,0,1-.378-.378l8.437-8.437a.263.263,0,0,1,.378,0Z" transform="translate(-497.527 -517.752)" fill="#f7f7f7"/>
    <path id="路径_331" data-name="路径 331" d="M542.784,561.4l7.478-7.48,3.226,3.225-7.475,7.48Z" transform="translate(-420.569 -440.063)" fill="#f7dc8f"/>
    <path id="路径_332" data-name="路径 332" d="M571.712,652.143l1.132-1.132,3.231,3.225-1.132,1.132Zm1.926-1.928.676-.679,3.23,3.22-.676.679Z" transform="translate(-448.365 -531.938)" fill="#ffecbd"/>
    <path id="路径_333" data-name="路径 333" d="M658.624,592.653l1.485-1.485,3.231,3.223-1.487,1.487Z" transform="translate(-531.877 -475.854)" fill="#efce71"/>
    <path id="路径_334" data-name="路径 334" d="M679.872,571.595l1.482-1.483,3.228,3.226-1.485,1.485Z" transform="translate(-552.293 -455.622)" fill="#edce8a"/>
    <path id="路径_335" data-name="路径 335" d="M121.366,96a16.251,16.251,0,0,0-15.879,19.826c.113.01.208.06.323.06a2.55,2.55,0,0,0,2.549-2.549c0-.015-.008-.028-.008-.045h.013v-4.7h.01a.927.927,0,0,1,1.851.058h.015l.02,4.643h.023a2.018,2.018,0,0,0,4.034,0h.025l-.033-9.659v-.048h.008a1.45,1.45,0,0,1,2.9.045c0,.02-.01.038-.013.06l.045,9.554c0,.048-.028.088-.028.133a2.407,2.407,0,0,0,4.811,0c0-.033-.018-.058-.018-.088h.008V102.731h.013c0-.02-.013-.038-.013-.058a1.232,1.232,0,1,1,2.464,0,.472.472,0,0,1-.013.058h.008l.03,10.428a.463.463,0,0,0-.01.058c0,.023.013.04.013.06v.018h0a1.12,1.12,0,0,0,2.236,0v-.005c0-.025.015-.048.015-.073a.577.577,0,0,0-.015-.07l.02-9.586,0-.013a1.7,1.7,0,0,1,3.406,0l0,.018h.025v4.991c0,.038-.023.07-.023.108s.02.07.023.108v.218h.045a1.658,1.658,0,0,0,3.268,0h.053v-.253c0-.025.015-.048.015-.073s-.015-.048-.015-.073v-1.645c0-.023-.025-.035-.025-.058s.023-.038.025-.058v-.013h.005a.807.807,0,0,1,1.613.02h.025l.035,6.456h.033a1.7,1.7,0,0,0,1.69,1.653,1.674,1.674,0,0,0,.461-.093A16.163,16.163,0,0,0,121.366,96Z" transform="translate(0 -0.061)" fill="#0091dc"/>
  </g>
</svg>
