<svg xmlns="http://www.w3.org/2000/svg" width="29.182" height="29.182" viewBox="0 0 29.182 29.182">
  <g id="组_1705" data-name="组 1705" transform="translate(-85.376 -85.376)">
    <path id="路径_610" data-name="路径 610" d="M95.572,141.567a5.1,5.1,0,0,0-10.2,0,4.9,4.9,0,0,0,1.406,3.516,19.346,19.346,0,0,0-.352,3.165,13.456,13.456,0,0,0,6.329,11.427l1.056-4.22a9.364,9.364,0,0,1-3.341-7.207,4.855,4.855,0,0,1,.176-1.582A5.069,5.069,0,0,0,95.572,141.567Z" transform="translate(0 -49.336)" fill="#240083"/>
    <path id="路径_611" data-name="路径 611" d="M356.533,89.418a10.567,10.567,0,0,1,4.746,1.232,6.234,6.234,0,0,0-.352,1.758,5.1,5.1,0,1,0,5.1-5.1,7.463,7.463,0,0,0-1.934.352,13.688,13.688,0,0,0-7.559-2.285,11.315,11.315,0,0,0-5.449,1.23l2.285,3.341A9.959,9.959,0,0,1,356.533,89.418Z" transform="translate(-256.566)" fill="#3846cf"/>
    <path id="路径_612" data-name="路径 612" d="M370.969,449.619a9.075,9.075,0,0,1-5.1,7.911,5.408,5.408,0,0,0-4.57-2.813,5.1,5.1,0,1,0,0,10.2,5.162,5.162,0,0,0,4.746-3.163,13.493,13.493,0,0,0,8.966-12.658v-.878c-.176.175-4.044,1.406-4.044,1.406Z" transform="translate(-261.51 -350.355)" fill="#552fb9"/>
  </g>
</svg>
