<svg xmlns="http://www.w3.org/2000/svg" width="29.967" height="32" viewBox="0 0 29.967 32">
  <g id="组_1631" data-name="组 1631" transform="translate(-64 -33.6)">
    <path id="路径_527" data-name="路径 527" d="M89.686,217.156h-21.4A4.294,4.294,0,0,1,64,212.875V194.681a4.294,4.294,0,0,1,4.281-4.281h21.4a4.294,4.294,0,0,1,4.281,4.281v18.194A4.294,4.294,0,0,1,89.686,217.156Z" transform="translate(0 -151.556)" fill="#e1e1df"/>
    <path id="路径_528" data-name="路径 528" d="M144.043,63.567h-8.562a4.294,4.294,0,0,1-4.281-4.281v-21.4a4.294,4.294,0,0,1,4.281-4.281h8.562a4.294,4.294,0,0,1,4.281,4.281v21.4A4.294,4.294,0,0,1,144.043,63.567Z" transform="translate(-64.953)" fill="#4e8df6"/>
    <path id="路径_529" data-name="路径 529" d="M383.749,200.005H380a.8.8,0,1,1,0-1.605h3.746a.823.823,0,0,1,.8.8A.788.788,0,0,1,383.749,200.005Z" transform="translate(-304.658 -159.288)" fill="#fff"/>
    <path id="路径_530" data-name="路径 530" d="M221.073,168.273m-1.873,0a1.873,1.873,0,1,0,1.873-1.873A1.873,1.873,0,0,0,219.2,168.273Z" transform="translate(-150.009 -128.359)" fill="#fff"/>
    <path id="路径_531" data-name="路径 531" d="M498.478,503.278m-7.278,0A7.278,7.278,0,1,0,498.478,496,7.278,7.278,0,0,0,491.2,503.278Z" transform="translate(-412.912 -446.935)" fill="#2166cc"/>
    <path id="路径_532" data-name="路径 532" d="M236,345.964v-3.478a.91.91,0,0,0-1.819,0v4.548l3.906,2.247a.9.9,0,1,0,.91-1.552Zm-6.9-5.03h-9.15a.765.765,0,0,1-.749-.749v-.054a.765.765,0,0,1,.749-.749h9.15a.765.765,0,0,1,.749.749v.054A.73.73,0,0,1,229.1,340.934Zm-.268-3.425H220.27a1.073,1.073,0,0,1-1.07-1.07V333.87a1.073,1.073,0,0,1,1.07-1.07h8.562a1.073,1.073,0,0,1,1.07,1.07v2.569A1.073,1.073,0,0,1,228.832,337.509Z" transform="translate(-150.009 -289.193)" fill="#fff"/>
  </g>
</svg>
