<svg xmlns="http://www.w3.org/2000/svg" width="34.667" height="34.667" viewBox="0 0 34.667 34.667">
  <path id="路径_319" data-name="路径 319" d="M95.61,81.333a4.747,4.747,0,0,1,3.057-4.43,17.777,17.777,0,0,0-1.942-4.693,4.741,4.741,0,0,1-6.264-6.268A17.856,17.856,0,0,0,85.763,64a4.739,4.739,0,0,1-8.86,0,17.777,17.777,0,0,0-4.693,1.942,4.741,4.741,0,0,1-6.264,6.268A17.658,17.658,0,0,0,64,76.9a4.739,4.739,0,0,1,0,8.86,17.777,17.777,0,0,0,1.942,4.693,4.741,4.741,0,0,1,6.264,6.268,17.856,17.856,0,0,0,4.7,1.942,4.739,4.739,0,0,1,8.86,0,17.777,17.777,0,0,0,4.693-1.942,4.741,4.741,0,0,1,6.264-6.268,17.657,17.657,0,0,0,1.946-4.693A4.747,4.747,0,0,1,95.61,81.333ZM81.333,86.092a4.759,4.759,0,1,1,4.759-4.759A4.76,4.76,0,0,1,81.333,86.092Z" transform="translate(-64 -64)" fill="#9a9a9a" opacity="0.599"/>
</svg>
