<svg xmlns="http://www.w3.org/2000/svg" width="28" height="21.484" viewBox="0 0 28 21.484">
  <g id="组_1370" data-name="组 1370" transform="translate(-0.385)">
    <path id="路径_418" data-name="路径 418" d="M15.126,319.693l-3.4,3.436a.8.8,0,0,1-1.1,0L.6,313.08a.8.8,0,0,1,0-1.1l3.4-3.4a.8.8,0,0,1,1.1,0L15.126,318.59A.8.8,0,0,1,15.126,319.693Z" transform="translate(0 -301.863)" fill="#ff5050"/>
    <path id="路径_419" data-name="路径 419" d="M336.708.292l3.047,3.047a1.058,1.058,0,0,1,0,1.459L323.547,21.006a1.058,1.058,0,0,1-1.459,0l-3.047-3.047a1.058,1.058,0,0,1,0-1.459L335.249.292a1.057,1.057,0,0,1,1.459,0Z" transform="translate(-311.662)" fill="#ff5050"/>
  </g>
</svg>
