<svg id="组_1467" data-name="组 1467" xmlns="http://www.w3.org/2000/svg" width="41.088" height="37.117" viewBox="0 0 41.088 37.117">
  <path id="路径_451" data-name="路径 451" d="M214.759,167.852l-7.745-3.835a1.068,1.068,0,0,0-1.658.958l-.555,8.633a2.8,2.8,0,0,0,1.439,2.495l7.74,3.835a1.067,1.067,0,0,0,1.658-.96l.555-8.633A2.794,2.794,0,0,0,214.759,167.852Zm17.756-10.263-7.745-3.835a1.068,1.068,0,0,0-1.66.96l-.554,8.628a2.8,2.8,0,0,0,1.438,2.493l7.745,3.835a1.068,1.068,0,0,0,1.659-.958l.554-8.633A2.809,2.809,0,0,0,232.515,157.589Z" transform="translate(-199.497 -152.265)" fill="#222a36"/>
  <path id="路径_452" data-name="路径 452" d="M515.007,546.442a1.039,1.039,0,0,0,1.442.262l4.374-2.3a.769.769,0,0,0,.337-1.1.948.948,0,0,0-1.218-.3l-2.81,1.477.728-1.613c.79-1.759,1.095-2.725.314-3.954l-.011-.02c-.87-1.369-2.541-1.681-4.212-.8a3.352,3.352,0,0,0-1.939,2.457.831.831,0,0,0,.113.607.983.983,0,0,0,1.271.311.835.835,0,0,0,.448-.544,1.787,1.787,0,0,1,.908-1.332,1.2,1.2,0,0,1,1.687.384c.384.607.256,1.223-.278,2.5l-1.206,2.915A1.108,1.108,0,0,0,515.007,546.442Z" transform="translate(-490.79 -516.389)" fill="#e5e5e5"/>
  <path id="路径_453" data-name="路径 453" d="M143.235,146.942a3.734,3.734,0,0,1-.5,3.747c-1.9,2.3-6.091,5.576-11.37,8.691-5.16,3.037-9.94,5.082-12.853,5.664a3.758,3.758,0,0,1-3.608-1.429c.015.02.02.05.04.072L102.6,147.712c0-.015.03-.009.009-.05a1.263,1.263,0,0,1,.477-1.727,1.227,1.227,0,0,1,.746-.144l11.436,2.359-.838-15.127a1.774,1.774,0,0,1,2.626-1.608l12.751,8.337,3.6-10.877c.005,0,.009.041.009.026a1.286,1.286,0,0,1,.591-.75,1.268,1.268,0,0,1,1.732.451c.016.032.021.007.041.012l7.607,18.564a1.508,1.508,0,0,1-.154-.236Z" transform="translate(-102.44 -127.978)" fill="#3846cf"/>
  <path id="路径_454" data-name="路径 454" d="M413.252,410.57a7.291,7.291,0,1,1-2.667,9.961A7.294,7.294,0,0,1,413.252,410.57Z" transform="translate(-393.701 -395.013)" fill="#319bf7"/>
  <path id="路径_455" data-name="路径 455" d="M491.061,468.159a.989.989,0,0,0,1.442.437,1.283,1.283,0,0,0,.387-1.633l-2.974-5.559a.989.989,0,0,0-1.442-.437l-.024.015a3.9,3.9,0,0,0-.774.742l-.987,1.174a1.17,1.17,0,0,0-.154,1.3.869.869,0,0,0,1.26.369,1.63,1.63,0,0,0,.3-.272l.554-.616Z" transform="translate(-466.524 -443.573)" fill="#222a36"/>
</svg>
