<svg xmlns="http://www.w3.org/2000/svg" width="41.603" height="43.5" viewBox="0 0 41.603 43.5">
  <path id="路径_1027" data-name="路径 1027" d="M86.862,62.135H97.341c3.243,0,5.73-7.038,5.73-7.038,0-2.11-.2-3.7-3.823-3.823-3.6-.127-4.475,2.516-7.066,2.516-2.667,0-3.97-2.063-7.241-2.516s-3.823,1.709-3.823,3.823C81.127,55.092,83.619,62.135,86.862,62.135ZM97.619,64.32H86.56c-12.244,0-15.26,24.058-15.26,24.058,0,3.167,2.563,6.334,5.73,6.334h30.143c3.167,0,5.73-3.167,5.73-6.334C112.879,88.379,109.863,64.32,97.619,64.32ZM99.054,79H93.173v2.44h5.815v2.214H93.173V88.36H90.959V83.654h-5.81V81.44h5.815V79H85.215V76.786h4.621l-4.442-5.291,1.695-1.421,4.956,5.9L97,70.074l1.695,1.421-4.437,5.291h4.8V79Z" transform="translate(-71.3 -51.213)" fill="#fff"/>
</svg>
