<svg id="组_1494" data-name="组 1494" xmlns="http://www.w3.org/2000/svg" width="30.549" height="22.439" viewBox="0 0 30.549 22.439">
  <path id="路径_459" data-name="路径 459" d="M189.7,285.306c0-5.473-4.565-7.806-10.2-7.806s-10.2,2.333-10.2,7.806,3.263,9.91,10.2,9.91S189.7,290.783,189.7,285.306Z" transform="translate(-169.3 -274.683)" fill="#ff5a5a"/>
  <path id="路径_460" data-name="路径 460" d="M303.657,311.678a6.939,6.939,0,0,0-4.5-6.778c.33,1.437,1.8,3.882-2.1,9.94a11.414,11.414,0,0,1-9.363,5.379,11.43,11.43,0,0,0,5.762,1.373C300.394,321.589,303.657,317.155,303.657,311.678Z" transform="translate(-283.259 -301.055)" fill="#ef3c3c"/>
  <path id="路径_461" data-name="路径 461" d="M334.245,206.027c-.135-.24-1.459-.717-3.627-.8a5.079,5.079,0,0,1,.638-2.213c.3-.375-.69-.968-1.174-.341a5.5,5.5,0,0,0-.825,2.554c-2.194.083-3.534.566-3.669.938-.146.409,1.692.791,1.692.791s-1.692,1.02-1.32,1.542,2.637-.341,2.637-.341.9,2.086,1.32,2.086,1.32-2.086,1.32-2.086,2.457.679,2.637.341-1.32-1.538-1.32-1.538S334.391,206.293,334.245,206.027Z" transform="translate(-319.717 -202.396)" fill="#61b150"/>
  <path id="路径_462" data-name="路径 462" d="M230.874,390.456a.336.336,0,0,1-.281-.15,8.292,8.292,0,0,1-.8-6.358.336.336,0,0,1,.649.176,7.565,7.565,0,0,0,.705,5.807.339.339,0,0,1-.094.469A.322.322,0,0,1,230.874,390.456Zm-.09-7.581a.335.335,0,0,1-.278-.529c.049-.067.094-.131.146-.191a.338.338,0,0,1,.521.431q-.056.068-.113.146A.352.352,0,0,1,230.784,382.875Z" transform="translate(-227.247 -375.293)" fill="#fff"/>
  <path id="路径_463" data-name="路径 463" d="M442.576,206.789a1.387,1.387,0,0,0-.66-.345,9.022,9.022,0,0,0-1.549-.334c-.42-.056-.9-.1-1.422-.124a5.081,5.081,0,0,1,.638-2.213c.169-.214-.075-.5-.409-.585a7.968,7.968,0,0,0-.93,3.05c-.064.45,2.765.139,2.874.5.049.161-.675.289-.867.6s.12.8,0,.927c-.236.236-1.883-.383-1.921-.113-.236,1.65-.255,2.855-.086,2.855.42,0,1.32-2.086,1.32-2.086s2.457.679,2.637.341-1.317-1.542-1.317-1.542S442.722,207.056,442.576,206.789Z" transform="translate(-428.048 -203.158)" fill="#559e43"/>
  <path id="路径_464" data-name="路径 464" d="M509.771,393.715c0,4.771-4.663,8.635-9.434,8.635s-9.036-3.864-9.036-8.635c0-2.375.458-4.415,2.907-6.084s5.308-.24,6.486-.075,2.757-1.369,5.664-.034S509.771,391.288,509.771,393.715Z" transform="translate(-479.222 -379.91)" fill="#f73746"/>
  <path id="路径_465" data-name="路径 465" d="M552.611,442.314v-3.23s2.142-.3,2.108-2.232-2.108-1.778-2.108-1.778V431.41a4.257,4.257,0,0,1,3.32.176c2.284,1.05,2.682,2.956,2.682,4.865,0,3.278-2.806,6.017-6.021,6.651Zm-2.206-.09v-2.933a2.617,2.617,0,0,1-2.056-2.483,1.762,1.762,0,0,1,2.056-1.8v-3.672a4.676,4.676,0,0,0-4.021.334,5.1,5.1,0,0,0-2.284,4.783,7.031,7.031,0,0,0,6.306,6.741Z" transform="translate(-530.041 -422.46)" fill="#fc9795"/>
  <path id="路径_466" data-name="路径 466" d="M821.1,491.305l.3-.705" transform="translate(-796.65 -479.789)" fill="#f84323"/>
  <path id="路径_467" data-name="路径 467" d="M812.439,483.078a.329.329,0,0,1-.131-.026.338.338,0,0,1-.18-.443l.3-.7a.338.338,0,0,1,.623.262l-.3.7A.338.338,0,0,1,812.439,483.078Z" transform="translate(-787.989 -471.225)" fill="#fff"/>
  <path id="路径_468" data-name="路径 468" d="M850.7,535.754l.885-.454" transform="translate(-825.14 -522.812)" fill="#f84323"/>
  <path id="路径_469" data-name="路径 469" d="M842.134,527.426a.337.337,0,0,1-.154-.638l.882-.454a.337.337,0,1,1,.307.6l-.881.454A.343.343,0,0,1,842.134,527.426Z" transform="translate(-816.57 -514.147)" fill="#fff"/>
  <path id="路径_470" data-name="路径 470" d="M855.5,607.2l1.088.274" transform="translate(-829.76 -592.015)" fill="#f84323"/>
  <path id="路径_471" data-name="路径 471" d="M847.922,599.145a.318.318,0,0,1-.082-.011l-1.088-.274a.337.337,0,1,1,.165-.653l1.088.274a.337.337,0,0,1-.083.664Z" transform="translate(-821.094 -583.349)" fill="#fff"/>
  <path id="路径_472" data-name="路径 472" d="M831.2,650.8l.465.769" transform="translate(-806.371 -633.98)" fill="#f84323"/>
  <path id="路径_473" data-name="路径 473" d="M823,643.14a.336.336,0,0,1-.289-.165l-.465-.769a.339.339,0,0,1,.581-.349l.465.769a.34.34,0,0,1-.293.514Z" transform="translate(-797.701 -625.213)" fill="#fff"/>
  <path id="路径_474" data-name="路径 474" d="M657,484.471l-.5-.971" transform="translate(-638.225 -472.956)" fill="#f84323"/>
  <path id="路径_475" data-name="路径 475" d="M648.316,476.122a.336.336,0,0,1-.3-.184l-.5-.971a.336.336,0,1,1,.6-.311l.5.972a.336.336,0,0,1-.143.454A.325.325,0,0,1,648.316,476.122Z" transform="translate(-629.538 -464.269)" fill="#fff"/>
  <path id="路径_476" data-name="路径 476" d="M603.155,529.354,602,528.9" transform="translate(-585.769 -516.653)" fill="#f84323"/>
  <path id="路径_477" data-name="路径 477" d="M594.48,521.017a.362.362,0,0,1-.124-.023l-1.155-.454a.338.338,0,1,1,.247-.63l1.155.454a.338.338,0,0,1-.124.653Z" transform="translate(-577.094 -507.977)" fill="#fff"/>
  <path id="路径_478" data-name="路径 478" d="M593.942,593.4l-1.242.158" transform="translate(-576.818 -578.733)" fill="#f84323"/>
  <path id="路径_479" data-name="路径 479" d="M584.069,585.168a.336.336,0,0,1-.334-.3.343.343,0,0,1,.293-.379l1.238-.157a.338.338,0,1,1,.086.671l-1.238.157A.172.172,0,0,1,584.069,585.168Z" transform="translate(-568.187 -570.006)" fill="#fff"/>
  <path id="路径_480" data-name="路径 480" d="M615.887,641.7l-.987.679" transform="translate(-598.185 -625.221)" fill="#f84323"/>
  <path id="路径_481" data-name="路径 481" d="M606.253,634.069a.338.338,0,0,1-.191-.615l.987-.679a.337.337,0,1,1,.383.555l-.987.679A.322.322,0,0,1,606.253,634.069Z" transform="translate(-589.538 -616.574)" fill="#fff"/>
</svg>
