<svg xmlns="http://www.w3.org/2000/svg" width="28.494" height="29.959" viewBox="0 0 28.494 29.959">
  <g id="组_939" data-name="组 939" transform="translate(-69.001 -1272.392)">
    <path id="减去_2" data-name="减去 2" d="M15.089,13.487a5.011,5.011,0,0,1-2.5-.669L3.347,7.484A4.91,4.91,0,0,1,.929,4.074,5,5,0,0,1,1.956,0,5.018,5.018,0,0,0,3.347,1.177L12.59,6.511a5,5,0,0,0,5,0l9.244-5.333A5.019,5.019,0,0,0,28.222,0a5,5,0,0,1,1.027,4.075,4.91,4.91,0,0,1-2.417,3.41l-9.244,5.333A5.007,5.007,0,0,1,15.089,13.487Z" transform="translate(68.159 1288.864)" fill="#9a9a9a"/>
    <path id="多边形_1" data-name="多边形 1" d="M16.75,1.442a5,5,0,0,1,5,0l9.244,5.333a5,5,0,0,1,0,8.662L21.747,20.77a5,5,0,0,1-5,0L7.506,15.437a5,5,0,0,1,0-8.662Z" transform="translate(64 1271.62)" fill="#9a9a9a"/>
  </g>
</svg>
