<svg xmlns="http://www.w3.org/2000/svg" width="33.064" height="33.061" viewBox="0 0 33.064 33.061">
  <path id="路径_115" data-name="路径 115" d="M26.176,19.257c-4.946,0-7.484,0-9.644,0A2.648,2.648,0,0,1,13.777,16.5V6.869c0-4.708-3.816-2.851-3.852-2.838a15.01,15.01,0,1,0,19.15,19.114c-.023.058,1.669-3.887-2.9-3.887Zm6.716-5.97a16.73,16.73,0,0,0-12.983-13c-3.7-.733-3.3,1.427-3.3,3v9.9a3.674,3.674,0,0,0,3.322,3.39H29.9c1.618,0,3.8.449,2.993-3.29Z" transform="translate(0 -0.138)" fill="#222a36"/>
</svg>
