<svg xmlns="http://www.w3.org/2000/svg" width="32.001" height="32.001" viewBox="0 0 32.001 32.001">
  <path id="路径_114" data-name="路径 114" d="M25.144,0H6.857A6.878,6.878,0,0,0,0,6.857V25.144A6.878,6.878,0,0,0,6.857,32H25.144A6.878,6.878,0,0,0,32,25.144V6.857A6.878,6.878,0,0,0,25.144,0ZM25.6,10.629,14.172,23.315a.7.7,0,0,1-.914,0L6.4,16.229a.866.866,0,0,1-.229-.457.866.866,0,0,1,.229-.457l1.143-1.029A.866.866,0,0,1,8,14.058a.866.866,0,0,1,.457.229l4.8,3.543a.7.7,0,0,0,.914,0l9.372-9.372a.7.7,0,0,1,.914,0L25.6,9.6q.343.686,0,1.029Z" fill="#222a36"/>
</svg>
